# xmcd
#
# Track frame offsets:
#	150
#	14403
#	24725
#	35375
#	50186
#	61843
#	75106
#	90889
#	102485
#	115684
#	129216
#	140649
#	165665
#	181734
#	199254
#	224325
#	241928
#	258463
#	269536
#	291188
#	310387
#	322810
#
# Disc length: 4453 seconds
#
# Revision: 1
# Processed by: cddbd v1.4PL0 Copyright (c) Steve Scherf et al.
# Submitted via: CDmax 1.8
#
DISCID=30116316
DTITLE=Various Artist - Mitch's History of Blues
DYEAR=2001
DGENRE=Blues
TTITLE0=John Lee Hooker - Boogie Chillin'
TTITLE1=Muddy Waters - Mean Red Spider
TTITLE2=J.B. Lenoir - Mama Talk To Your Daughter
TTITLE3=Muddy Waters - Baby Please Don't Go
TTITLE4=Sonny Boy Williamson - Don't Start Me To Talkin'
TTITLE5=Muddy Waters - Mannish Boy
TTITLE6=Floyd Dixon - Please Don't Go
TTITLE7=John Lee Hooker - Boom Boom
TTITLE8=Booker T and the MGs - Green Onions
TTITLE9=John Lee Hooker - One Bourbon, One Scotch, One Beer
TTITLE10=Etta James - I'd Rather Go Blind
TTITLE11=B.B. King - The Thrill Is Gone
TTITLE12=Jimi Hendrix - Hey Joe
TTITLE13=Jimi Hendrix - Red House
TTITLE14=Led Zepplin - Whole Lotta Love
TTITLE15=Ike and Tina Turner - I've Been Loving You Too Long
TTITLE16=Stevie Ray Vaughan - Pride and Joy
TTITLE17=Stevie Ray Vaughan - Life By The Drop
TTITLE18=George Thorogood and the Destroyers - Bad To The Bone
TTITLE19=Moby - Natural Blues
TTITLE20=Muddy Waters - Hoochie Koochie Man
TTITLE21=Robert Johnson - Sweet Home Chicago
EXTD=
EXTT0=
EXTT1=
EXTT2=
EXTT3=
EXTT4=
EXTT5=
EXTT6=
EXTT7=
EXTT8=
EXTT9=
EXTT10=
EXTT11=
EXTT12=
EXTT13=
EXTT14=
EXTT15=
EXTT16=
EXTT17=
EXTT18=
EXTT19=
EXTT20=
EXTT21=
PLAYORDER=
